<svg width="40" height="48" viewBox="0 0 40 48" fill="none" xmlns="http://www.w3.org/2000/svg">
<path fill-rule="evenodd" clip-rule="evenodd" d="M17.5204 21.1765C17.5204 21.1765 21.8281 27.3773 2.66667 29.3902C4.16922 29.9193 10.6588 29.7562 14.921 27.6989C18.7844 25.8343 19.6744 23.1091 17.5204 21.1765Z" fill="#FEE600"/>
<path fill-rule="evenodd" clip-rule="evenodd" d="M12.9046 6.48585C12.9599 6.428 13.0144 6.37477 13.0691 6.31938C12.9622 6.41938 12.9046 6.48585 12.9046 6.48585ZM11.4051 19.2422C10.6758 19.1717 10.1458 19.1566 10.1458 19.1566C10.4413 19.1923 10.8854 19.2148 11.4051 19.2422ZM38.6667 0C38.6667 0 32.1286 1.48185 20.7963 7.90215C19.0849 4.05046 16.6177 2.73354 13.0688 6.31938C13.7637 5.66708 16.5492 3.568 19.2099 8.81538C15.871 10.7677 12.1535 13.1286 8.09498 15.9806C-8.21942 28.2818 3.68159 29.9166 12.8144 24.4526C20.6683 19.7532 14.6 19.4089 11.4051 19.2422C14.2662 19.5178 20.1979 20.6418 9.26015 25.0283C-4.46548 30.5335 3.34587 19.8778 18.5276 10.7163C18.9426 10.4662 19.3471 10.2234 19.747 9.98431C21.9649 15.2738 23.9884 26.1938 24.4935 48C24.4935 48 25.4125 20.4837 21.2678 9.07938C34.1355 1.47477 38.6667 0 38.6667 0Z" fill="#ED1F24"/>
<path fill-rule="evenodd" clip-rule="evenodd" d="M24.5519 11.2941C35.9267 4.24006 40 2.82353 40 2.82353C40 2.82353 34.1813 4.23209 24 10.1378" fill="#FEE600"/>
</svg>
